<?xml version="1.0" encoding="iso-8859-1"?>
<!-- Generator: Adobe Illustrator 21.0.0, SVG Export Plug-In . SVG Version: 6.00 Build 0)  -->
<svg version="1.1" id="Capa_1" xmlns="http://www.w3.org/2000/svg" xmlns:xlink="http://www.w3.org/1999/xlink" x="0px" y="0px"
	 viewBox="0 0 1104 1104" style="enable-background:new 0 0 1104 1104;" xml:space="preserve">
<g>
	<g id="smartphone-mobile-call_1_">
		
			<linearGradient id="SVGID_1_" gradientUnits="userSpaceOnUse" x1="552" y1="1126.5272" x2="552" y2="-51.0728" gradientTransform="matrix(1 0 0 -1 0 1102)">
			<stop  offset="0" style="stop-color:#FFF33B"/>
			<stop  offset="0.014" style="stop-color:#FEE72E"/>
			<stop  offset="0.042" style="stop-color:#FED51B"/>
			<stop  offset="0.07" style="stop-color:#FDCA10"/>
			<stop  offset="0.1" style="stop-color:#FDC70C"/>
			<stop  offset="0.4" style="stop-color:#F3903F"/>
			<stop  offset="0.8" style="stop-color:#ED683C"/>
			<stop  offset="1" style="stop-color:#E93E3A"/>
		</linearGradient>
		<path style="fill:url(#SVGID_1_);" d="M552,791.2c132.107,0,239.2-107.094,239.2-239.2S684.107,312.8,552,312.8
			S312.8,419.893,312.8,552C312.952,684.043,419.957,791.048,552,791.2z M552,349.6c111.782,0,202.4,90.618,202.4,202.4
			S663.782,754.4,552,754.4S349.6,663.782,349.6,552C349.732,440.272,440.272,349.732,552,349.6z"/>
		
			<linearGradient id="SVGID_2_" gradientUnits="userSpaceOnUse" x1="544.3557" y1="1126.5272" x2="544.3557" y2="-51.0728" gradientTransform="matrix(1 0 0 -1 0 1102)">
			<stop  offset="0" style="stop-color:#FFF33B"/>
			<stop  offset="0.014" style="stop-color:#FEE72E"/>
			<stop  offset="0.042" style="stop-color:#FED51B"/>
			<stop  offset="0.07" style="stop-color:#FDCA10"/>
			<stop  offset="0.1" style="stop-color:#FDC70C"/>
			<stop  offset="0.4" style="stop-color:#F3903F"/>
			<stop  offset="0.8" style="stop-color:#ED683C"/>
			<stop  offset="1" style="stop-color:#E93E3A"/>
		</linearGradient>
		<path style="fill:url(#SVGID_2_);" d="M486.938,682.99c24.401,0.039,47.813-9.641,65.062-26.901L656.089,552
			c35.867-35.953,35.867-94.153,0-130.106c-21.841-20.867-56.231-20.867-78.071,0c-16.514,16.56-20.838,41.712-10.801,62.836
			l-82.487,82.487c-21.167-9.715-46.128-5.425-62.836,10.801c-21.559,21.555-21.562,56.506-0.007,78.065
			c0.002,0.002,0.004,0.004,0.007,0.007C439.137,673.346,462.542,683.025,486.938,682.99z M447.911,604.035
			c7.185-7.183,18.832-7.183,26.018,0c7.185,7.183,18.832,7.183,26.018,0l104.089-104.089c7.183-7.185,7.183-18.832,0-26.018
			c-7.183-7.185-7.183-18.832,0-26.018c7.287-6.951,18.749-6.951,26.036,0c21.511,21.579,21.511,56.493,0,78.071L525.982,630.071
			c-21.555,21.559-56.506,21.562-78.065,0.007c-0.002-0.002-0.004-0.004-0.007-0.007c-7.183-7.185-7.183-18.832,0-26.018V604.035z"
			/>
		
			<linearGradient id="SVGID_3_" gradientUnits="userSpaceOnUse" x1="552" y1="1126.5272" x2="552" y2="-51.0728" gradientTransform="matrix(1 0 0 -1 0 1102)">
			<stop  offset="0" style="stop-color:#FFF33B"/>
			<stop  offset="0.014" style="stop-color:#FEE72E"/>
			<stop  offset="0.042" style="stop-color:#FED51B"/>
			<stop  offset="0.07" style="stop-color:#FDCA10"/>
			<stop  offset="0.1" style="stop-color:#FDC70C"/>
			<stop  offset="0.4" style="stop-color:#F3903F"/>
			<stop  offset="0.8" style="stop-color:#ED683C"/>
			<stop  offset="1" style="stop-color:#E93E3A"/>
		</linearGradient>
		<path style="fill:url(#SVGID_3_);" d="M791.2,0H312.8c-40.648,0-73.6,32.952-73.6,73.6V1012c0.061,50.785,41.215,91.939,92,92
			h441.6c50.785-0.061,91.939-41.215,92-92V73.6C864.8,32.952,831.848,0,791.2,0z M828,1012c0,30.486-24.714,55.2-55.2,55.2H331.2
			c-30.486,0-55.2-24.714-55.2-55.2v-18.4h552V1012z M828,956.8H276V147.2h552V956.8z M828,110.4H276V73.6
			c0-20.324,16.476-36.8,36.8-36.8h478.4c20.324,0,36.8,16.476,36.8,36.8V110.4z"/>
		
			<linearGradient id="SVGID_4_" gradientUnits="userSpaceOnUse" x1="552" y1="1126.5272" x2="552" y2="-51.0728" gradientTransform="matrix(1 0 0 -1 0 1102)">
			<stop  offset="0" style="stop-color:#FFF33B"/>
			<stop  offset="0.014" style="stop-color:#FEE72E"/>
			<stop  offset="0.042" style="stop-color:#FED51B"/>
			<stop  offset="0.07" style="stop-color:#FDCA10"/>
			<stop  offset="0.1" style="stop-color:#FDC70C"/>
			<stop  offset="0.4" style="stop-color:#F3903F"/>
			<stop  offset="0.8" style="stop-color:#ED683C"/>
			<stop  offset="1" style="stop-color:#E93E3A"/>
		</linearGradient>
		<rect x="515.2" y="1012" style="fill:url(#SVGID_4_);" width="73.6" height="36.8"/>
	</g>
</g>
<g>
</g>
<g>
</g>
<g>
</g>
<g>
</g>
<g>
</g>
<g>
</g>
<g>
</g>
<g>
</g>
<g>
</g>
<g>
</g>
<g>
</g>
<g>
</g>
<g>
</g>
<g>
</g>
<g>
</g>
</svg>
